<?xml version="1.0" encoding="UTF-8" standalone="no"?>
<!DOCTYPE svg PUBLIC "-//W3C//DTD SVG 1.1//EN"
 "http://www.w3.org/Graphics/SVG/1.1/DTD/svg11.dtd">
<!-- Generated by graphviz version 8.0.5 (20230430.1635)
 -->
<!-- Pages: 1 -->
<svg width="798pt" height="476pt"
 viewBox="0.00 0.00 798.24 476.00" xmlns="http://www.w3.org/2000/svg" xmlns:xlink="http://www.w3.org/1999/xlink">
<g id="graph0" class="graph" transform="scale(1 1) rotate(0) translate(4 472)">
<polygon fill="white" stroke="none" points="-4,4 -4,-472 794.24,-472 794.24,4 -4,4"/>
<!-- [root] aws_instance.public_instance (expand) -->
<g id="node1" class="node">
<title>[root] aws_instance.public_instance (expand)</title>
<polygon fill="none" stroke="black" points="450.33,-324 273.83,-324 273.83,-288 450.33,-288 450.33,-324"/>
<text text-anchor="middle" x="362.08" y="-300.95" font-family="Times,serif" font-size="14.00">aws_instance.public_instance</text>
</g>
<!-- [root] aws_subnet.public_subnet (expand) -->
<g id="node3" class="node">
<title>[root] aws_subnet.public_subnet (expand)</title>
<polygon fill="none" stroke="black" points="631.33,-252 472.83,-252 472.83,-216 631.33,-216 631.33,-252"/>
<text text-anchor="middle" x="552.08" y="-228.95" font-family="Times,serif" font-size="14.00">aws_subnet.public_subnet</text>
</g>
<!-- [root] aws_instance.public_instance (expand)&#45;&gt;[root] aws_subnet.public_subnet (expand) -->
<g id="edge1" class="edge">
<title>[root] aws_instance.public_instance (expand)&#45;&gt;[root] aws_subnet.public_subnet (expand)</title>
<path fill="none" stroke="black" d="M409.54,-287.52C435.37,-278 467.51,-266.16 494.73,-256.13"/>
<polygon fill="black" stroke="black" points="495.73,-259.12 503.9,-252.38 493.31,-252.55 495.73,-259.12"/>
</g>
<!-- [root] data.aws_key_pair.my_key_pair (expand) -->
<g id="node5" class="node">
<title>[root] data.aws_key_pair.my_key_pair (expand)</title>
<polygon fill="none" stroke="black" points="455.21,-252 262.96,-252 262.96,-216 455.21,-216 455.21,-252"/>
<text text-anchor="middle" x="359.08" y="-228.95" font-family="Times,serif" font-size="14.00">data.aws_key_pair.my_key_pair</text>
</g>
<!-- [root] aws_instance.public_instance (expand)&#45;&gt;[root] data.aws_key_pair.my_key_pair (expand) -->
<g id="edge2" class="edge">
<title>[root] aws_instance.public_instance (expand)&#45;&gt;[root] data.aws_key_pair.my_key_pair (expand)</title>
<path fill="none" stroke="black" d="M361.34,-287.7C361.02,-280.24 360.64,-271.32 360.28,-262.97"/>
<polygon fill="black" stroke="black" points="363.74,-262.95 359.82,-253.1 356.75,-263.25 363.74,-262.95"/>
</g>
<!-- [root] aws_subnet.private_subnet (expand) -->
<g id="node2" class="node">
<title>[root] aws_subnet.private_subnet (expand)</title>
<polygon fill="none" stroke="black" points="633.21,-324 470.96,-324 470.96,-288 633.21,-288 633.21,-324"/>
<text text-anchor="middle" x="552.08" y="-300.95" font-family="Times,serif" font-size="14.00">aws_subnet.private_subnet</text>
</g>
<!-- [root] aws_subnet.private_subnet (expand)&#45;&gt;[root] aws_subnet.public_subnet (expand) -->
<g id="edge3" class="edge">
<title>[root] aws_subnet.private_subnet (expand)&#45;&gt;[root] aws_subnet.public_subnet (expand)</title>
<path fill="none" stroke="black" d="M552.08,-287.7C552.08,-280.24 552.08,-271.32 552.08,-262.97"/>
<polygon fill="black" stroke="black" points="555.58,-263.1 552.08,-253.1 548.58,-263.1 555.58,-263.1"/>
</g>
<!-- [root] aws_vpc.vpc_ireland (expand) -->
<g id="node4" class="node">
<title>[root] aws_vpc.vpc_ireland (expand)</title>
<polygon fill="none" stroke="black" points="678.46,-180 547.71,-180 547.71,-144 678.46,-144 678.46,-180"/>
<text text-anchor="middle" x="613.08" y="-156.95" font-family="Times,serif" font-size="14.00">aws_vpc.vpc_ireland</text>
</g>
<!-- [root] aws_subnet.public_subnet (expand)&#45;&gt;[root] aws_vpc.vpc_ireland (expand) -->
<g id="edge4" class="edge">
<title>[root] aws_subnet.public_subnet (expand)&#45;&gt;[root] aws_vpc.vpc_ireland (expand)</title>
<path fill="none" stroke="black" d="M567.16,-215.7C574.4,-207.39 583.21,-197.28 591.17,-188.14"/>
<polygon fill="black" stroke="black" points="594.25,-190.94 598.18,-181.1 588.97,-186.34 594.25,-190.94"/>
</g>
<!-- [root] var.subnets -->
<g id="node8" class="node">
<title>[root] var.subnets</title>
<polygon fill="none" stroke="black" points="523.46,-180 452.71,-180 452.71,-144 529.46,-144 529.46,-174 523.46,-180"/>
<polyline fill="none" stroke="black" points="523.46,-180 523.46,-174"/>
<polyline fill="none" stroke="black" points="529.46,-174 523.46,-174"/>
<text text-anchor="middle" x="491.08" y="-156.95" font-family="Times,serif" font-size="14.00">var.subnets</text>
</g>
<!-- [root] aws_subnet.public_subnet (expand)&#45;&gt;[root] var.subnets -->
<g id="edge5" class="edge">
<title>[root] aws_subnet.public_subnet (expand)&#45;&gt;[root] var.subnets</title>
<path fill="none" stroke="black" d="M537,-215.7C529.77,-207.39 520.95,-197.28 512.99,-188.14"/>
<polygon fill="black" stroke="black" points="515.2,-186.34 505.99,-181.1 509.92,-190.94 515.2,-186.34"/>
</g>
<!-- [root] provider[&quot;registry.terraform.io/hashicorp/aws&quot;] -->
<g id="node6" class="node">
<title>[root] provider[&quot;registry.terraform.io/hashicorp/aws&quot;]</title>
<polygon fill="none" stroke="black" points="359.08,-108 94.65,-90 359.08,-72 623.51,-90 359.08,-108"/>
<text text-anchor="middle" x="359.08" y="-84.95" font-family="Times,serif" font-size="14.00">provider[&quot;registry.terraform.io/hashicorp/aws&quot;]</text>
</g>
<!-- [root] aws_vpc.vpc_ireland (expand)&#45;&gt;[root] provider[&quot;registry.terraform.io/hashicorp/aws&quot;] -->
<g id="edge6" class="edge">
<title>[root] aws_vpc.vpc_ireland (expand)&#45;&gt;[root] provider[&quot;registry.terraform.io/hashicorp/aws&quot;]</title>
<path fill="none" stroke="black" d="M549.64,-143.52C510.07,-132.61 459.41,-118.65 420.27,-107.86"/>
<polygon fill="black" stroke="black" points="421.38,-104.26 410.81,-104.98 419.52,-111.01 421.38,-104.26"/>
</g>
<!-- [root] var.ireland_cidr -->
<g id="node7" class="node">
<title>[root] var.ireland_cidr</title>
<polygon fill="none" stroke="black" points="736.83,-108 641.33,-108 641.33,-72 742.83,-72 742.83,-102 736.83,-108"/>
<polyline fill="none" stroke="black" points="736.83,-108 736.83,-102"/>
<polyline fill="none" stroke="black" points="742.83,-102 736.83,-102"/>
<text text-anchor="middle" x="692.08" y="-84.95" font-family="Times,serif" font-size="14.00">var.ireland_cidr</text>
</g>
<!-- [root] aws_vpc.vpc_ireland (expand)&#45;&gt;[root] var.ireland_cidr -->
<g id="edge7" class="edge">
<title>[root] aws_vpc.vpc_ireland (expand)&#45;&gt;[root] var.ireland_cidr</title>
<path fill="none" stroke="black" d="M632.61,-143.7C642.2,-135.2 653.92,-124.81 664.42,-115.51"/>
<polygon fill="black" stroke="black" points="666.34,-118.6 671.51,-109.35 661.7,-113.36 666.34,-118.6"/>
</g>
<!-- [root] data.aws_key_pair.my_key_pair (expand)&#45;&gt;[root] provider[&quot;registry.terraform.io/hashicorp/aws&quot;] -->
<g id="edge8" class="edge">
<title>[root] data.aws_key_pair.my_key_pair (expand)&#45;&gt;[root] provider[&quot;registry.terraform.io/hashicorp/aws&quot;]</title>
<path fill="none" stroke="black" d="M359.08,-215.59C359.08,-191.5 359.08,-147.75 359.08,-119.03"/>
<polygon fill="black" stroke="black" points="362.58,-119.11 359.08,-109.11 355.58,-119.11 362.58,-119.11"/>
</g>
<!-- [root] var.tags -->
<g id="node9" class="node">
<title>[root] var.tags</title>
<polygon fill="none" stroke="black" points="382.08,-36 330.08,-36 330.08,0 388.08,0 388.08,-30 382.08,-36"/>
<polyline fill="none" stroke="black" points="382.08,-36 382.08,-30"/>
<polyline fill="none" stroke="black" points="388.08,-30 382.08,-30"/>
<text text-anchor="middle" x="359.08" y="-12.95" font-family="Times,serif" font-size="14.00">var.tags</text>
</g>
<!-- [root] provider[&quot;registry.terraform.io/hashicorp/aws&quot;]&#45;&gt;[root] var.tags -->
<g id="edge12" class="edge">
<title>[root] provider[&quot;registry.terraform.io/hashicorp/aws&quot;]&#45;&gt;[root] var.tags</title>
<path fill="none" stroke="black" d="M359.08,-71.7C359.08,-64.24 359.08,-55.32 359.08,-46.97"/>
<polygon fill="black" stroke="black" points="362.58,-47.1 359.08,-37.1 355.58,-47.1 362.58,-47.1"/>
</g>
<!-- [root] output.e2c_public_ip (expand) -->
<g id="node10" class="node">
<title>[root] output.e2c_public_ip (expand)</title>
<ellipse fill="none" stroke="black" cx="148.08" cy="-378" rx="148.08" ry="18"/>
<text text-anchor="middle" x="148.08" y="-372.95" font-family="Times,serif" font-size="14.00">[root] output.e2c_public_ip (expand)</text>
</g>
<!-- [root] output.e2c_public_ip (expand)&#45;&gt;[root] aws_instance.public_instance (expand) -->
<g id="edge9" class="edge">
<title>[root] output.e2c_public_ip (expand)&#45;&gt;[root] aws_instance.public_instance (expand)</title>
<path fill="none" stroke="black" d="M198.26,-360.59C228.24,-350.78 266.62,-338.23 298.69,-327.74"/>
<polygon fill="black" stroke="black" points="299.44,-330.84 307.86,-324.41 297.27,-324.19 299.44,-330.84"/>
</g>
<!-- [root] provider[&quot;registry.terraform.io/hashicorp/aws&quot;] (close) -->
<g id="node11" class="node">
<title>[root] provider[&quot;registry.terraform.io/hashicorp/aws&quot;] (close)</title>
<ellipse fill="none" stroke="black" cx="552.08" cy="-378" rx="238.16" ry="18"/>
<text text-anchor="middle" x="552.08" y="-372.95" font-family="Times,serif" font-size="14.00">[root] provider[&quot;registry.terraform.io/hashicorp/aws&quot;] (close)</text>
</g>
<!-- [root] provider[&quot;registry.terraform.io/hashicorp/aws&quot;] (close)&#45;&gt;[root] aws_instance.public_instance (expand) -->
<g id="edge10" class="edge">
<title>[root] provider[&quot;registry.terraform.io/hashicorp/aws&quot;] (close)&#45;&gt;[root] aws_instance.public_instance (expand)</title>
<path fill="none" stroke="black" d="M505.6,-359.88C479.69,-350.33 447.19,-338.36 419.68,-328.22"/>
<polygon fill="black" stroke="black" points="421,-324.61 410.4,-324.43 418.58,-331.17 421,-324.61"/>
</g>
<!-- [root] provider[&quot;registry.terraform.io/hashicorp/aws&quot;] (close)&#45;&gt;[root] aws_subnet.private_subnet (expand) -->
<g id="edge11" class="edge">
<title>[root] provider[&quot;registry.terraform.io/hashicorp/aws&quot;] (close)&#45;&gt;[root] aws_subnet.private_subnet (expand)</title>
<path fill="none" stroke="black" d="M552.08,-359.7C552.08,-352.24 552.08,-343.32 552.08,-334.97"/>
<polygon fill="black" stroke="black" points="555.58,-335.1 552.08,-325.1 548.58,-335.1 555.58,-335.1"/>
</g>
<!-- [root] root -->
<g id="node12" class="node">
<title>[root] root</title>
<ellipse fill="none" stroke="black" cx="350.08" cy="-450" rx="49.3" ry="18"/>
<text text-anchor="middle" x="350.08" y="-444.95" font-family="Times,serif" font-size="14.00">[root] root</text>
</g>
<!-- [root] root&#45;&gt;[root] output.e2c_public_ip (expand) -->
<g id="edge13" class="edge">
<title>[root] root&#45;&gt;[root] output.e2c_public_ip (expand)</title>
<path fill="none" stroke="black" d="M315.36,-436.97C285.28,-426.54 241.15,-411.25 205.77,-398.99"/>
<polygon fill="black" stroke="black" points="207.17,-395.42 196.57,-395.46 204.88,-402.04 207.17,-395.42"/>
</g>
<!-- [root] root&#45;&gt;[root] provider[&quot;registry.terraform.io/hashicorp/aws&quot;] (close) -->
<g id="edge14" class="edge">
<title>[root] root&#45;&gt;[root] provider[&quot;registry.terraform.io/hashicorp/aws&quot;] (close)</title>
<path fill="none" stroke="black" d="M384.81,-436.97C414.48,-426.68 457.81,-411.67 492.94,-399.5"/>
<polygon fill="black" stroke="black" points="493.78,-402.56 502.08,-395.98 491.49,-395.95 493.78,-402.56"/>
</g>
</g>
</svg>
